<svg width="167" height="33" viewBox="0 0 167 33" fill="none" xmlns="http://www.w3.org/2000/svg">
<path d="M37.7963 32.1409H50.714L18.7141 0.140869H5.79626L37.7963 32.1409Z" fill="#CBD5E1"/>
<path d="M25.3506 0.140871L56.198 30.9882V0.140869H47.8501V9.87996L38.111 0.140869L25.3506 0.140871Z" fill="#CBD5E1"/>
<path d="M0.388428 1.21216V32.1407H8.73625V22.4016L18.4753 32.1407H31.3171L0.388428 1.21216Z" fill="#CBD5E1"/>
<path d="M72.6589 9.99634L68.0183 24.1409H64.28L70.6199 7.07837H72.9988L72.6589 9.99634ZM76.5144 24.1409L71.8621 9.99634L71.4871 7.07837H73.8894L80.2644 24.1409H76.5144ZM76.3035 17.7893V20.5432H67.2917V17.7893H76.3035ZM85.0105 14.2268V24.1409H81.6355V11.4612H84.8113L85.0105 14.2268ZM88.8308 11.3792L88.7722 14.5081C88.6082 14.4846 88.4089 14.4651 88.1746 14.4495C87.948 14.426 87.741 14.4143 87.5535 14.4143C87.0769 14.4143 86.6628 14.4768 86.3113 14.6018C85.9675 14.719 85.6785 14.8948 85.4441 15.1292C85.2175 15.3635 85.0457 15.6487 84.9285 15.9846C84.8191 16.3206 84.7566 16.7034 84.741 17.1331L84.0613 16.9221C84.0613 16.1018 84.1433 15.3479 84.3074 14.6604C84.4714 13.9651 84.7097 13.3596 85.0222 12.844C85.3425 12.3284 85.7332 11.9299 86.1941 11.6487C86.655 11.3674 87.1824 11.2268 87.7761 11.2268C87.9636 11.2268 88.155 11.2424 88.3503 11.2737C88.5457 11.2971 88.7058 11.3323 88.8308 11.3792ZM97.2214 11.4612V13.8518H89.8386V11.4612H97.2214ZM91.6667 8.33228H95.0417V20.3206C95.0417 20.6877 95.0886 20.969 95.1824 21.1643C95.2839 21.3596 95.4324 21.4963 95.6277 21.5745C95.823 21.6448 96.0691 21.6799 96.366 21.6799C96.5769 21.6799 96.7644 21.6721 96.9285 21.6565C97.1003 21.6331 97.2449 21.6096 97.3621 21.5862L97.3738 24.0706C97.0847 24.1643 96.7722 24.2385 96.4363 24.2932C96.1003 24.3479 95.7292 24.3752 95.323 24.3752C94.5808 24.3752 93.9324 24.2542 93.3777 24.012C92.8308 23.762 92.4089 23.3635 92.1121 22.8167C91.8152 22.2698 91.6667 21.551 91.6667 20.6604V8.33228ZM105.507 20.5784L109.526 7.07837H113.44L107.499 24.1409H104.921L105.507 20.5784ZM101.803 7.07837L105.811 20.5784L106.421 24.1409H103.819L97.9128 7.07837H101.803ZM120.143 24.3752C119.159 24.3752 118.276 24.219 117.495 23.9065C116.714 23.5862 116.05 23.1448 115.503 22.5823C114.964 22.0198 114.55 21.3674 114.26 20.6252C113.971 19.8752 113.827 19.0784 113.827 18.2346V17.7659C113.827 16.8049 113.964 15.926 114.237 15.1292C114.51 14.3323 114.901 13.6409 115.409 13.0549C115.925 12.469 116.55 12.0198 117.284 11.7073C118.018 11.387 118.846 11.2268 119.768 11.2268C120.667 11.2268 121.464 11.3752 122.159 11.6721C122.854 11.969 123.436 12.3909 123.905 12.9377C124.382 13.4846 124.741 14.1409 124.983 14.9065C125.225 15.6643 125.346 16.5081 125.346 17.4377V18.844H115.268V16.594H122.03V16.3362C122.03 15.8674 121.944 15.4495 121.772 15.0823C121.608 14.7073 121.358 14.4104 121.022 14.1917C120.686 13.9729 120.257 13.8635 119.733 13.8635C119.288 13.8635 118.905 13.9612 118.585 14.1565C118.264 14.3518 118.003 14.6252 117.8 14.9768C117.604 15.3284 117.456 15.7424 117.354 16.219C117.26 16.6877 117.214 17.2034 117.214 17.7659V18.2346C117.214 18.7424 117.284 19.2112 117.425 19.6409C117.573 20.0706 117.78 20.4417 118.046 20.7542C118.319 21.0667 118.647 21.3088 119.03 21.4807C119.421 21.6526 119.862 21.7385 120.354 21.7385C120.964 21.7385 121.53 21.6213 122.053 21.387C122.585 21.1448 123.042 20.7815 123.425 20.2971L125.065 22.0784C124.8 22.4612 124.436 22.8284 123.975 23.1799C123.522 23.5315 122.975 23.8206 122.335 24.0471C121.694 24.2659 120.964 24.3752 120.143 24.3752ZM130.573 14.1682V24.1409H127.198V11.4612H130.362L130.573 14.1682ZM130.081 17.3557H129.167C129.167 16.4182 129.288 15.5745 129.53 14.8245C129.772 14.0667 130.112 13.4221 130.55 12.8909C130.987 12.3518 131.507 11.9417 132.108 11.6604C132.718 11.3713 133.397 11.2268 134.147 11.2268C134.741 11.2268 135.284 11.3127 135.776 11.4846C136.268 11.6565 136.69 11.9299 137.042 12.3049C137.401 12.6799 137.675 13.176 137.862 13.7932C138.057 14.4104 138.155 15.1643 138.155 16.0549V24.1409H134.757V16.0432C134.757 15.4807 134.678 15.0432 134.522 14.7307C134.366 14.4182 134.135 14.1995 133.831 14.0745C133.534 13.9417 133.167 13.8752 132.729 13.8752C132.276 13.8752 131.882 13.9651 131.546 14.1448C131.218 14.3245 130.944 14.5745 130.725 14.8948C130.514 15.2073 130.354 15.5745 130.245 15.9963C130.135 16.4182 130.081 16.8713 130.081 17.3557ZM148.221 21.1057V11.4612H151.596V24.1409H148.421L148.221 21.1057ZM148.596 18.5042L149.593 18.4807C149.593 19.3245 149.495 20.1096 149.3 20.8362C149.104 21.5549 148.811 22.1799 148.421 22.7112C148.03 23.2346 147.538 23.6448 146.944 23.9417C146.35 24.2307 145.651 24.3752 144.846 24.3752C144.229 24.3752 143.659 24.2893 143.135 24.1174C142.62 23.9377 142.175 23.6604 141.8 23.2854C141.432 22.9026 141.143 22.4143 140.932 21.8206C140.729 21.219 140.628 20.4963 140.628 19.6526V11.4612H144.003V19.676C144.003 20.051 144.046 20.3674 144.132 20.6252C144.225 20.8831 144.354 21.094 144.518 21.2581C144.682 21.4221 144.874 21.5393 145.093 21.6096C145.319 21.6799 145.569 21.7151 145.843 21.7151C146.538 21.7151 147.085 21.5745 147.483 21.2932C147.889 21.012 148.175 20.6292 148.339 20.1448C148.51 19.6526 148.596 19.1057 148.596 18.5042ZM160.01 24.3752C159.026 24.3752 158.143 24.219 157.362 23.9065C156.581 23.5862 155.917 23.1448 155.37 22.5823C154.831 22.0198 154.417 21.3674 154.128 20.6252C153.839 19.8752 153.694 19.0784 153.694 18.2346V17.7659C153.694 16.8049 153.831 15.926 154.104 15.1292C154.378 14.3323 154.768 13.6409 155.276 13.0549C155.792 12.469 156.417 12.0198 157.151 11.7073C157.885 11.387 158.714 11.2268 159.635 11.2268C160.534 11.2268 161.331 11.3752 162.026 11.6721C162.721 11.969 163.303 12.3909 163.772 12.9377C164.249 13.4846 164.608 14.1409 164.85 14.9065C165.093 15.6643 165.214 16.5081 165.214 17.4377V18.844H155.135V16.594H161.897V16.3362C161.897 15.8674 161.811 15.4495 161.639 15.0823C161.475 14.7073 161.225 14.4104 160.889 14.1917C160.553 13.9729 160.124 13.8635 159.6 13.8635C159.155 13.8635 158.772 13.9612 158.452 14.1565C158.132 14.3518 157.87 14.6252 157.667 14.9768C157.471 15.3284 157.323 15.7424 157.221 16.219C157.128 16.6877 157.081 17.2034 157.081 17.7659V18.2346C157.081 18.7424 157.151 19.2112 157.292 19.6409C157.44 20.0706 157.647 20.4417 157.913 20.7542C158.186 21.0667 158.514 21.3088 158.897 21.4807C159.288 21.6526 159.729 21.7385 160.221 21.7385C160.831 21.7385 161.397 21.6213 161.921 21.387C162.452 21.1448 162.909 20.7815 163.292 20.2971L164.932 22.0784C164.667 22.4612 164.303 22.8284 163.843 23.1799C163.389 23.5315 162.843 23.8206 162.202 24.0471C161.561 24.2659 160.831 24.3752 160.01 24.3752Z" fill="#CBD5E1"/>
</svg>
