<svg width="14" height="10" viewBox="0 0 14 10" fill="none" xmlns="http://www.w3.org/2000/svg">
<path d="M5.486 9.87087C5.35473 9.87114 5.22471 9.84548 5.10338 9.79537C4.98206 9.74526 4.87182 9.67169 4.779 9.57887L0.536999 5.33587C0.441426 5.24369 0.365168 5.1334 0.312675 5.01143C0.260181 4.88947 0.232503 4.75827 0.231257 4.62549C0.23001 4.49271 0.255219 4.36102 0.305413 4.23809C0.355607 4.11516 0.42978 4.00345 0.523606 3.90949C0.617431 3.81554 0.72903 3.7412 0.851889 3.69084C0.974748 3.64047 1.10641 3.61507 1.23919 3.61613C1.37197 3.61719 1.5032 3.64468 1.62525 3.697C1.74729 3.74933 1.85768 3.82543 1.95 3.92087L5.485 7.45587L11.85 1.09287C12.0375 0.905229 12.2919 0.799761 12.5571 0.799667C12.8224 0.799574 13.0769 0.904862 13.2645 1.09237C13.4521 1.27988 13.5576 1.53425 13.5577 1.79952C13.5578 2.06479 13.4525 2.31923 13.265 2.50687L6.193 9.57887C6.10018 9.67169 5.98994 9.74526 5.86862 9.79537C5.74729 9.84548 5.61727 9.87114 5.486 9.87087Z" fill="#818CF8"/>
</svg>
