<svg width="177" height="33" viewBox="0 0 177 33" fill="none" xmlns="http://www.w3.org/2000/svg">
<path d="M23.483 26.6253L2.0704 11.8549C-0.0995048 10.3582 0.638121 7.24174 3.34394 6.50889L26.1017 0.332176C26.5838 0.158226 27.1004 0.101758 27.6087 0.167464C28.1169 0.23317 28.6022 0.419152 29.0243 0.709977C29.4462 1.0008 29.7928 1.38808 30.0351 1.83967C30.2774 2.29125 30.4086 2.79413 30.4177 3.30655L29.0689 24.2525C28.909 26.7387 25.6529 28.1221 23.483 26.6253Z" fill="#CBD5E1"/>
<path d="M16.6916 30.2712L4.07676 5.60142C3.78839 5.03705 3.6615 4.40399 3.71007 3.77208C3.75864 3.14017 3.98078 2.53394 4.352 2.02027C4.72322 1.50659 5.22909 1.10541 5.81383 0.860967C6.39857 0.616524 7.03946 0.538321 7.66582 0.634989L31.0443 4.24313C31.5825 4.32622 32.0933 4.53587 32.5348 4.85485C32.9762 5.17384 33.3356 5.59305 33.5835 6.07801C33.8313 6.56297 33.9605 7.09982 33.9604 7.64445C33.9603 8.18906 33.8309 8.72589 33.583 9.21077L22.8134 30.2724C22.5242 30.8352 22.0855 31.3074 21.5454 31.6369C21.0053 31.9666 20.3849 32.1408 19.7522 32.1407C19.1194 32.1406 18.499 31.9661 17.9591 31.6363C17.4191 31.3064 16.9806 30.8341 16.6916 30.2712Z" fill="#CBD5E1"/>
<path d="M24.3811 8.8678L19.8923 8.14087L14.3811 9.71098L16.5809 14.2264L21.7322 17.9561C21.8458 18.0375 21.9708 18.0998 22.1027 18.1409L24.0593 14.1261L24.3811 8.8678Z" fill="#0F172A"/>
<path d="M52.3666 19.676C52.3666 19.3713 52.3198 19.0979 52.226 18.8557C52.1401 18.6057 51.976 18.3792 51.7338 18.176C51.4916 17.9651 51.1518 17.7581 50.7143 17.5549C50.2768 17.3518 49.7104 17.1409 49.0151 16.9221C48.2416 16.6721 47.5073 16.3909 46.812 16.0784C46.1245 15.7659 45.5151 15.4026 44.9838 14.9885C44.4604 14.5667 44.0463 14.0784 43.7416 13.5237C43.4448 12.969 43.2963 12.3245 43.2963 11.5901C43.2963 10.8792 43.4526 10.2346 43.7651 9.65649C44.0776 9.07056 44.5151 8.57056 45.0776 8.15649C45.6401 7.73462 46.3041 7.4104 47.0698 7.18384C47.8432 6.95728 48.6909 6.84399 49.6127 6.84399C50.8705 6.84399 51.9682 7.07056 52.9057 7.52368C53.8432 7.97681 54.5698 8.5979 55.0854 9.38696C55.6088 10.176 55.8705 11.0784 55.8705 12.094H52.3784C52.3784 11.594 52.2729 11.1565 52.062 10.7815C51.8588 10.3987 51.5463 10.0979 51.1245 9.87915C50.7104 9.6604 50.187 9.55103 49.5541 9.55103C48.9448 9.55103 48.437 9.64478 48.0307 9.83228C47.6245 10.012 47.3198 10.2581 47.1166 10.5706C46.9135 10.8752 46.812 11.219 46.812 11.6018C46.812 11.8909 46.8823 12.1526 47.0229 12.387C47.1713 12.6213 47.3901 12.8401 47.6791 13.0432C47.9682 13.2463 48.3237 13.4377 48.7455 13.6174C49.1674 13.7971 49.6557 13.9729 50.2104 14.1448C51.1401 14.426 51.9565 14.7424 52.6596 15.094C53.3705 15.4456 53.9643 15.8401 54.4409 16.2776C54.9174 16.7151 55.2768 17.2112 55.519 17.7659C55.7612 18.3206 55.8823 18.9495 55.8823 19.6526C55.8823 20.3948 55.7377 21.0588 55.4487 21.6448C55.1596 22.2307 54.7416 22.7268 54.1948 23.1331C53.6479 23.5393 52.9955 23.8479 52.2377 24.0588C51.4799 24.2698 50.6323 24.3752 49.6948 24.3752C48.851 24.3752 48.019 24.2659 47.1987 24.0471C46.3784 23.8206 45.6323 23.4807 44.9604 23.0276C44.2963 22.5745 43.7651 21.9963 43.3666 21.2932C42.9682 20.5901 42.769 19.7581 42.769 18.7971H46.2963C46.2963 19.3284 46.3784 19.7776 46.5424 20.1448C46.7065 20.512 46.937 20.8088 47.2338 21.0354C47.5385 21.262 47.8979 21.426 48.312 21.5276C48.7338 21.6292 49.1948 21.6799 49.6948 21.6799C50.3041 21.6799 50.8041 21.594 51.1948 21.4221C51.5932 21.2502 51.8862 21.012 52.0737 20.7073C52.269 20.4026 52.3666 20.0588 52.3666 19.676ZM61.437 14.0862V24.1409H58.0502V11.4612H61.226L61.437 14.0862ZM60.9682 17.3557H60.0307C60.0307 16.4729 60.1362 15.6604 60.3471 14.9182C60.5659 14.1682 60.8823 13.5198 61.2963 12.9729C61.7182 12.4182 62.2377 11.9885 62.8549 11.6838C63.4721 11.3792 64.187 11.2268 64.9995 11.2268C65.562 11.2268 66.0776 11.3127 66.5463 11.4846C67.0151 11.6487 67.4174 11.9104 67.7534 12.2698C68.0971 12.6213 68.3627 13.0823 68.5502 13.6526C68.7377 14.2151 68.8315 14.8909 68.8315 15.6799V24.1409H65.4565V16.0549C65.4565 15.4768 65.3784 15.0315 65.2221 14.719C65.0659 14.4065 64.8432 14.1877 64.5541 14.0627C64.2729 13.9377 63.933 13.8752 63.5346 13.8752C63.0971 13.8752 62.7143 13.9651 62.3862 14.1448C62.0659 14.3245 61.8002 14.5745 61.5893 14.8948C61.3784 15.2073 61.2221 15.5745 61.1205 15.9963C61.019 16.4182 60.9682 16.8713 60.9682 17.3557ZM68.5151 16.969L67.308 17.1213C67.308 16.2932 67.4096 15.5237 67.6127 14.8127C67.8237 14.1018 68.1323 13.4768 68.5385 12.9377C68.9526 12.3987 69.4643 11.9807 70.0737 11.6838C70.683 11.3792 71.3862 11.2268 72.183 11.2268C72.7924 11.2268 73.3471 11.3167 73.8471 11.4963C74.3471 11.6682 74.7729 11.9456 75.1245 12.3284C75.4838 12.7034 75.7573 13.1956 75.9448 13.8049C76.1401 14.4143 76.2377 15.1604 76.2377 16.0432V24.1409H72.851V16.0432C72.851 15.4573 72.7729 15.012 72.6166 14.7073C72.4682 14.3948 72.2495 14.1799 71.9604 14.0627C71.6791 13.9377 71.3432 13.8752 70.9526 13.8752C70.5463 13.8752 70.1909 13.9573 69.8862 14.1213C69.5815 14.2776 69.3276 14.4963 69.1245 14.7776C68.9213 15.0588 68.769 15.387 68.6674 15.762C68.5659 16.1292 68.5151 16.5315 68.5151 16.969ZM85.6948 21.2815V15.6331C85.6948 15.2268 85.6284 14.8792 85.4955 14.5901C85.3627 14.2932 85.1557 14.0627 84.8745 13.8987C84.601 13.7346 84.2455 13.6526 83.808 13.6526C83.433 13.6526 83.1088 13.719 82.8354 13.8518C82.562 13.9768 82.351 14.1604 82.2026 14.4026C82.0541 14.637 81.9799 14.9143 81.9799 15.2346H78.6049C78.6049 14.6956 78.7299 14.1838 78.9799 13.6995C79.2299 13.2151 79.5932 12.7893 80.0698 12.4221C80.5463 12.0471 81.1127 11.7542 81.769 11.5432C82.433 11.3323 83.1752 11.2268 83.9955 11.2268C84.9799 11.2268 85.8549 11.3909 86.6205 11.719C87.3862 12.0471 87.9877 12.5393 88.4252 13.1956C88.8705 13.8518 89.0932 14.6721 89.0932 15.6565V21.0823C89.0932 21.7776 89.1362 22.3479 89.2221 22.7932C89.308 23.2307 89.433 23.6135 89.5971 23.9417V24.1409H86.187C86.0229 23.7971 85.8979 23.3674 85.812 22.8518C85.7338 22.3284 85.6948 21.8049 85.6948 21.2815ZM86.1401 16.4182L86.1635 18.3284H84.2768C83.8315 18.3284 83.4448 18.3792 83.1166 18.4807C82.7885 18.5823 82.519 18.7268 82.308 18.9143C82.0971 19.094 81.9409 19.3049 81.8393 19.5471C81.7455 19.7893 81.6987 20.0549 81.6987 20.344C81.6987 20.6331 81.7651 20.8948 81.8979 21.1292C82.0307 21.3557 82.2221 21.5354 82.4721 21.6682C82.7221 21.7932 83.0151 21.8557 83.351 21.8557C83.8588 21.8557 84.3002 21.7542 84.6752 21.551C85.0502 21.3479 85.3393 21.0979 85.5424 20.801C85.7534 20.5042 85.8627 20.2229 85.8705 19.9573L86.7612 21.387C86.6362 21.7073 86.4643 22.0393 86.2455 22.3831C86.0346 22.7268 85.7651 23.051 85.437 23.3557C85.1088 23.6526 84.7143 23.8987 84.2534 24.094C83.7924 24.2815 83.2455 24.3752 82.6127 24.3752C81.808 24.3752 81.0776 24.2151 80.4213 23.8948C79.7729 23.5667 79.2573 23.1174 78.8745 22.5471C78.4995 21.969 78.312 21.3127 78.312 20.5784C78.312 19.9143 78.437 19.3245 78.687 18.8088C78.937 18.2932 79.3041 17.8596 79.7885 17.5081C80.2807 17.1487 80.894 16.8792 81.6284 16.6995C82.3627 16.512 83.2143 16.4182 84.183 16.4182H86.1401ZM95.0698 14.2268V24.1409H91.6948V11.4612H94.8705L95.0698 14.2268ZM98.8901 11.3792L98.8315 14.5081C98.6674 14.4846 98.4682 14.4651 98.2338 14.4495C98.0073 14.426 97.8002 14.4143 97.6127 14.4143C97.1362 14.4143 96.7221 14.4768 96.3705 14.6018C96.0268 14.719 95.7377 14.8948 95.5034 15.1292C95.2768 15.3635 95.1049 15.6487 94.9877 15.9846C94.8784 16.3206 94.8159 16.7034 94.8002 17.1331L94.1205 16.9221C94.1205 16.1018 94.2026 15.3479 94.3666 14.6604C94.5307 13.9651 94.769 13.3596 95.0815 12.844C95.4018 12.3284 95.7924 11.9299 96.2534 11.6487C96.7143 11.3674 97.2416 11.2268 97.8354 11.2268C98.0229 11.2268 98.2143 11.2424 98.4096 11.2737C98.6049 11.2971 98.7651 11.3323 98.8901 11.3792ZM107.281 11.4612V13.8518H99.8979V11.4612H107.281ZM101.726 8.33228H105.101V20.3206C105.101 20.6877 105.148 20.969 105.242 21.1643C105.343 21.3596 105.492 21.4963 105.687 21.5745C105.882 21.6448 106.128 21.6799 106.425 21.6799C106.636 21.6799 106.824 21.6721 106.988 21.6565C107.16 21.6331 107.304 21.6096 107.421 21.5862L107.433 24.0706C107.144 24.1643 106.831 24.2385 106.496 24.2932C106.16 24.3479 105.789 24.3752 105.382 24.3752C104.64 24.3752 103.992 24.2542 103.437 24.012C102.89 23.762 102.468 23.3635 102.171 22.8167C101.874 22.2698 101.726 21.551 101.726 20.6604V8.33228ZM112.929 7.07837V24.1409H109.414V7.07837H112.929ZM119.726 14.3674V17.1096H111.968V14.3674H119.726ZM120.546 7.07837V9.83228H111.968V7.07837H120.546ZM125.937 11.4612V24.1409H122.55V11.4612H125.937ZM122.339 8.15649C122.339 7.66431 122.511 7.25806 122.855 6.93774C123.199 6.61743 123.66 6.45728 124.238 6.45728C124.808 6.45728 125.265 6.61743 125.609 6.93774C125.96 7.25806 126.136 7.66431 126.136 8.15649C126.136 8.64868 125.96 9.05493 125.609 9.37524C125.265 9.69556 124.808 9.85571 124.238 9.85571C123.66 9.85571 123.199 9.69556 122.855 9.37524C122.511 9.05493 122.339 8.64868 122.339 8.15649ZM132.031 14.1682V24.1409H128.656V11.4612H131.82L132.031 14.1682ZM131.539 17.3557H130.624C130.624 16.4182 130.746 15.5745 130.988 14.8245C131.23 14.0667 131.57 13.4221 132.007 12.8909C132.445 12.3518 132.964 11.9417 133.566 11.6604C134.175 11.3713 134.855 11.2268 135.605 11.2268C136.199 11.2268 136.742 11.3127 137.234 11.4846C137.726 11.6565 138.148 11.9299 138.499 12.3049C138.859 12.6799 139.132 13.176 139.32 13.7932C139.515 14.4104 139.613 15.1643 139.613 16.0549V24.1409H136.214V16.0432C136.214 15.4807 136.136 15.0432 135.98 14.7307C135.824 14.4182 135.593 14.1995 135.289 14.0745C134.992 13.9417 134.624 13.8752 134.187 13.8752C133.734 13.8752 133.339 13.9651 133.003 14.1448C132.675 14.3245 132.402 14.5745 132.183 14.8948C131.972 15.2073 131.812 15.5745 131.703 15.9963C131.593 16.4182 131.539 16.8713 131.539 17.3557ZM149.667 21.3752V6.14087H153.066V24.1409H150.007L149.667 21.3752ZM141.652 17.9534V17.7073C141.652 16.7385 141.761 15.8596 141.98 15.0706C142.199 14.2737 142.519 13.5901 142.941 13.0198C143.363 12.4495 143.882 12.0081 144.499 11.6956C145.117 11.3831 145.82 11.2268 146.609 11.2268C147.351 11.2268 147.999 11.3831 148.554 11.6956C149.117 12.0081 149.593 12.4534 149.984 13.0315C150.382 13.6018 150.703 14.2776 150.945 15.0588C151.187 15.8323 151.363 16.6799 151.472 17.6018V18.1409C151.363 19.0237 151.187 19.844 150.945 20.6018C150.703 21.3596 150.382 22.0237 149.984 22.594C149.593 23.1565 149.117 23.594 148.554 23.9065C147.992 24.219 147.335 24.3752 146.585 24.3752C145.796 24.3752 145.093 24.2151 144.476 23.8948C143.867 23.5745 143.351 23.1252 142.929 22.5471C142.515 21.969 142.199 21.2893 141.98 20.5081C141.761 19.7268 141.652 18.8752 141.652 17.9534ZM145.027 17.7073V17.9534C145.027 18.4768 145.066 18.9651 145.144 19.4182C145.23 19.8713 145.367 20.2737 145.554 20.6252C145.749 20.969 145.999 21.2385 146.304 21.4338C146.617 21.6213 146.996 21.7151 147.441 21.7151C148.019 21.7151 148.496 21.5862 148.871 21.3284C149.246 21.0627 149.531 20.6995 149.726 20.2385C149.929 19.7776 150.046 19.2463 150.078 18.6448V17.1096C150.054 16.6174 149.984 16.176 149.867 15.7854C149.757 15.387 149.593 15.0471 149.374 14.7659C149.164 14.4846 148.898 14.2659 148.578 14.1096C148.265 13.9534 147.894 13.8752 147.464 13.8752C147.027 13.8752 146.652 13.9768 146.339 14.1799C146.027 14.3752 145.773 14.6448 145.578 14.9885C145.39 15.3323 145.249 15.7385 145.156 16.2073C145.07 16.6682 145.027 17.1682 145.027 17.7073ZM161.539 24.3752C160.554 24.3752 159.671 24.219 158.89 23.9065C158.109 23.5862 157.445 23.1448 156.898 22.5823C156.359 22.0198 155.945 21.3674 155.656 20.6252C155.367 19.8752 155.222 19.0784 155.222 18.2346V17.7659C155.222 16.8049 155.359 15.926 155.632 15.1292C155.906 14.3323 156.296 13.6409 156.804 13.0549C157.32 12.469 157.945 12.0198 158.679 11.7073C159.414 11.387 160.242 11.2268 161.164 11.2268C162.062 11.2268 162.859 11.3752 163.554 11.6721C164.249 11.969 164.831 12.3909 165.3 12.9377C165.777 13.4846 166.136 14.1409 166.378 14.9065C166.621 15.6643 166.742 16.5081 166.742 17.4377V18.844H156.664V16.594H163.425V16.3362C163.425 15.8674 163.339 15.4495 163.167 15.0823C163.003 14.7073 162.753 14.4104 162.417 14.1917C162.081 13.9729 161.652 13.8635 161.128 13.8635C160.683 13.8635 160.3 13.9612 159.98 14.1565C159.66 14.3518 159.398 14.6252 159.195 14.9768C158.999 15.3284 158.851 15.7424 158.749 16.219C158.656 16.6877 158.609 17.2034 158.609 17.7659V18.2346C158.609 18.7424 158.679 19.2112 158.82 19.6409C158.968 20.0706 159.175 20.4417 159.441 20.7542C159.714 21.0667 160.042 21.3088 160.425 21.4807C160.816 21.6526 161.257 21.7385 161.749 21.7385C162.359 21.7385 162.925 21.6213 163.449 21.387C163.98 21.1448 164.437 20.7815 164.82 20.2971L166.46 22.0784C166.195 22.4612 165.831 22.8284 165.371 23.1799C164.917 23.5315 164.371 23.8206 163.73 24.0471C163.089 24.2659 162.359 24.3752 161.539 24.3752ZM172.039 14.2268V24.1409H168.664V11.4612H171.839L172.039 14.2268ZM175.859 11.3792L175.8 14.5081C175.636 14.4846 175.437 14.4651 175.203 14.4495C174.976 14.426 174.769 14.4143 174.581 14.4143C174.105 14.4143 173.691 14.4768 173.339 14.6018C172.996 14.719 172.706 14.8948 172.472 15.1292C172.246 15.3635 172.074 15.6487 171.956 15.9846C171.847 16.3206 171.785 16.7034 171.769 17.1331L171.089 16.9221C171.089 16.1018 171.171 15.3479 171.335 14.6604C171.499 13.9651 171.738 13.3596 172.05 12.844C172.371 12.3284 172.761 11.9299 173.222 11.6487C173.683 11.3674 174.21 11.2268 174.804 11.2268C174.992 11.2268 175.183 11.2424 175.378 11.2737C175.574 11.2971 175.734 11.3323 175.859 11.3792Z" fill="#CBD5E1"/>
</svg>
