<svg width="110" height="33" viewBox="0 0 110 33" fill="none" xmlns="http://www.w3.org/2000/svg">
<path d="M10.166 20.1226V28.2434C10.166 28.5547 10.0424 28.8533 9.82221 29.0733C9.60217 29.2934 9.30363 29.4171 8.99228 29.4171C8.68104 29.4171 8.38249 29.2934 8.16234 29.0733C7.94219 28.8533 7.81853 28.5547 7.81853 28.2434V20.1338C8.14538 20.3725 8.53715 20.5057 8.94173 20.5157C9.3827 20.5283 9.81479 20.3896 10.166 20.1226ZM20.1625 17.7751C19.8646 17.7751 19.5789 17.8935 19.3683 18.1041C19.1577 18.3147 19.0393 18.6005 19.0393 18.8983V20.3136C19.0393 20.6249 19.163 20.9235 19.3831 21.1435C19.6032 21.3636 19.9017 21.4873 20.2131 21.4873C20.5244 21.4873 20.823 21.3636 21.043 21.1435C21.2631 20.9235 21.3868 20.6249 21.3868 20.3136V18.9545C21.3956 18.7934 21.3695 18.6324 21.3104 18.4823C21.2513 18.3322 21.1607 18.1966 21.0444 18.0847C20.9283 17.9728 20.7894 17.8872 20.6373 17.8338C20.4851 17.7804 20.3231 17.7604 20.1625 17.7751ZM5.26886 23.2002C4.8647 23.1881 4.47344 23.0551 4.14566 22.8183V30.9615C4.14566 31.2743 4.26991 31.5743 4.49109 31.7955C4.71226 32.0166 5.01223 32.1409 5.32502 32.1409C5.63781 32.1409 5.93779 32.0166 6.15896 31.7955C6.38014 31.5743 6.50438 31.2743 6.50438 30.9615V22.8745C6.1376 23.1116 5.70484 23.2257 5.26886 23.2002ZM16.5009 15.3378C16.3487 15.3301 16.1966 15.3536 16.0537 15.4066C15.911 15.4596 15.7805 15.5412 15.67 15.6462C15.5597 15.7513 15.472 15.8777 15.412 16.0178C15.3522 16.1578 15.3213 16.3087 15.3215 16.461V22.7172C15.3215 23.03 15.4457 23.33 15.6669 23.5512C15.8882 23.7723 16.1881 23.8966 16.5009 23.8966C16.8137 23.8966 17.1137 23.7723 17.3349 23.5512C17.556 23.33 17.6802 23.03 17.6802 22.7172V16.5396C17.6892 16.3775 17.6629 16.2155 17.6032 16.0645C17.5434 15.9135 17.4518 15.7773 17.3343 15.6652C17.2168 15.5531 17.0765 15.4677 16.923 15.4152C16.7694 15.3625 16.6062 15.3437 16.4447 15.3602L16.5009 15.3378ZM12.7718 17.7414C12.3487 17.7385 11.937 17.6052 11.5925 17.3595V25.5252C11.5925 25.838 11.7167 26.138 11.9379 26.3592C12.1591 26.5804 12.459 26.7046 12.7718 26.7046C13.0847 26.7046 13.3846 26.5804 13.6058 26.3592C13.827 26.138 13.9512 25.838 13.9512 25.5252V17.3708C13.5949 17.6362 13.1599 17.7746 12.7157 17.7639L12.7718 17.7414ZM2.7192 23.9977V1.18545C2.71624 0.907375 2.6037 0.641716 2.40601 0.446133C2.20833 0.25055 1.94147 0.140858 1.66339 0.140869H1.41628C1.1382 0.140858 0.871339 0.25055 0.673656 0.446133C0.475972 0.641716 0.363428 0.907375 0.360474 1.18545V23.9977C0.360474 24.2777 0.471716 24.5462 0.669713 24.7443C0.867711 24.9423 1.13627 25.0535 1.41628 25.0535H1.66339C1.94341 25.0535 2.21196 24.9423 2.40996 24.7443C2.60797 24.5462 2.7192 24.2777 2.7192 23.9977ZM5.39241 22.3353H5.14531C4.8653 22.3353 4.59674 22.2241 4.39874 22.0261C4.20074 21.8281 4.0895 21.5595 4.0895 21.2795V3.90359C4.09247 3.62553 4.205 3.35985 4.40268 3.16428C4.60037 2.9687 4.86723 2.859 5.14531 2.85902H5.39241C5.6705 2.859 5.93736 2.9687 6.13504 3.16428C6.33272 3.35985 6.44527 3.62553 6.44822 3.90359V21.302C6.44822 21.582 6.33698 21.8505 6.13898 22.0486C5.94099 22.2466 5.67243 22.3578 5.39241 22.3578V22.3353ZM9.11021 19.6621H8.85187C8.57489 19.6621 8.30914 19.552 8.11326 19.3561C7.91737 19.1603 7.8073 18.8946 7.8073 18.6175V6.59928C7.80584 6.46116 7.83178 6.32411 7.88356 6.19608C7.93534 6.06805 8.01206 5.95157 8.10921 5.85338C8.20637 5.75519 8.32206 5.67724 8.44954 5.62405C8.57703 5.57085 8.71372 5.54346 8.85187 5.54347H9.11021C9.38832 5.54643 9.65395 5.65897 9.8495 5.85665C10.0452 6.05433 10.1548 6.32119 10.1548 6.59928V18.6175C10.1548 18.8946 10.0447 19.1603 9.84883 19.3561C9.65294 19.552 9.3873 19.6621 9.11021 19.6621ZM12.828 16.9103H12.5921C12.314 16.9103 12.0472 16.8006 11.8495 16.605C11.6518 16.4094 11.5392 16.1438 11.5363 15.8657V9.39605C11.5271 9.25183 11.5476 9.10727 11.5965 8.97125C11.6454 8.83534 11.7218 8.71078 11.8207 8.60554C11.9197 8.50018 12.0392 8.41639 12.1719 8.35911C12.3046 8.30194 12.4476 8.27251 12.5921 8.27285H12.8392C13.1193 8.27285 13.3878 8.38404 13.5858 8.58206C13.7839 8.78008 13.895 9.04864 13.895 9.32865V15.8432C13.8965 15.9828 13.8703 16.1213 13.8179 16.2507C13.7655 16.3801 13.688 16.4978 13.5898 16.5971C13.4916 16.6963 13.3748 16.775 13.2458 16.8288C13.117 16.8826 12.9789 16.9103 12.8392 16.9103H12.828ZM16.557 14.4954H16.3099C16.0299 14.4954 15.7614 14.3842 15.5633 14.1862C15.3653 13.9881 15.2541 13.7196 15.2541 13.4396V11.766C15.257 11.4879 15.3696 11.2223 15.5673 11.0267C15.765 10.831 16.0318 10.7214 16.3099 10.7214H16.557C16.8351 10.7214 17.102 10.831 17.2997 11.0267C17.4974 11.2223 17.6099 11.4879 17.6128 11.766V13.4396C17.6128 13.7177 17.5032 13.9845 17.3076 14.1822C17.112 14.3799 16.8464 14.4925 16.5683 14.4954H16.557Z" fill="#CBD5E1"/>
<path d="M35.0252 21.4338L38.4236 7.07837H40.3221L40.7556 9.46899L37.1346 24.1409H35.0955L35.0252 21.4338ZM33.2791 7.07837L36.0916 21.4338L35.8572 24.1409H33.5838L29.7986 7.07837H33.2791ZM43.7439 21.3752L46.5213 7.07837H50.0017L46.2283 24.1409H43.9549L43.7439 21.3752ZM41.3885 7.07837L44.8103 21.4924L44.7166 24.1409H42.6775L39.033 9.45728L39.5017 7.07837H41.3885ZM58.3338 9.99634L53.6931 24.1409H49.9549L56.2947 7.07837H58.6736L58.3338 9.99634ZM62.1892 24.1409L57.5369 9.99634L57.1619 7.07837H59.5642L65.9392 24.1409H62.1892ZM61.9783 17.7893V20.5432H52.9666V17.7893H61.9783ZM72.7127 20.5784L76.7322 7.07837H80.6463L74.7049 24.1409H72.1267L72.7127 20.5784ZM69.0096 7.07837L73.0174 20.5784L73.6267 24.1409H71.0252L65.1189 7.07837H69.0096ZM93.6892 21.3987V24.1409H84.6072V21.3987H93.6892ZM85.7556 7.07837V24.1409H82.24V7.07837H85.7556ZM92.5056 14.0276V16.6995H84.6072V14.0276H92.5056ZM93.6775 7.07837V9.83228H84.6072V7.07837H93.6775ZM104.623 19.676C104.623 19.3713 104.576 19.0979 104.482 18.8557C104.396 18.6057 104.232 18.3792 103.99 18.176C103.748 17.9651 103.408 17.7581 102.97 17.5549C102.533 17.3518 101.967 17.1409 101.271 16.9221C100.498 16.6721 99.7635 16.3909 99.0681 16.0784C98.3806 15.7659 97.7713 15.4026 97.24 14.9885C96.7166 14.5667 96.3025 14.0784 95.9978 13.5237C95.701 12.969 95.5525 12.3245 95.5525 11.5901C95.5525 10.8792 95.7088 10.2346 96.0213 9.65649C96.3338 9.07056 96.7713 8.57056 97.3338 8.15649C97.8963 7.73462 98.5603 7.4104 99.326 7.18384C100.099 6.95728 100.947 6.84399 101.869 6.84399C103.127 6.84399 104.224 7.07056 105.162 7.52368C106.099 7.97681 106.826 8.5979 107.342 9.38696C107.865 10.176 108.127 11.0784 108.127 12.094H104.635C104.635 11.594 104.529 11.1565 104.318 10.7815C104.115 10.3987 103.803 10.0979 103.381 9.87915C102.967 9.6604 102.443 9.55103 101.81 9.55103C101.201 9.55103 100.693 9.64478 100.287 9.83228C99.8806 10.012 99.576 10.2581 99.3728 10.5706C99.1697 10.8752 99.0681 11.219 99.0681 11.6018C99.0681 11.8909 99.1385 12.1526 99.2791 12.387C99.4275 12.6213 99.6463 12.8401 99.9353 13.0432C100.224 13.2463 100.58 13.4377 101.002 13.6174C101.424 13.7971 101.912 13.9729 102.467 14.1448C103.396 14.426 104.213 14.7424 104.916 15.094C105.627 15.4456 106.22 15.8401 106.697 16.2776C107.174 16.7151 107.533 17.2112 107.775 17.7659C108.017 18.3206 108.138 18.9495 108.138 19.6526C108.138 20.3948 107.994 21.0588 107.705 21.6448C107.416 22.2307 106.998 22.7268 106.451 23.1331C105.904 23.5393 105.252 23.8479 104.494 24.0588C103.736 24.2698 102.888 24.3752 101.951 24.3752C101.107 24.3752 100.275 24.2659 99.4549 24.0471C98.6346 23.8206 97.8885 23.4807 97.2166 23.0276C96.5525 22.5745 96.0213 21.9963 95.6228 21.2932C95.2244 20.5901 95.0252 19.7581 95.0252 18.7971H98.5525C98.5525 19.3284 98.6346 19.7776 98.7986 20.1448C98.9627 20.512 99.1931 20.8088 99.49 21.0354C99.7947 21.262 100.154 21.426 100.568 21.5276C100.99 21.6292 101.451 21.6799 101.951 21.6799C102.56 21.6799 103.06 21.594 103.451 21.4221C103.849 21.2502 104.142 21.012 104.33 20.7073C104.525 20.4026 104.623 20.0588 104.623 19.676Z" fill="#CBD5E1"/>
</svg>
